<?xml version="1.0" encoding="UTF-8" standalone="no"?>
<!DOCTYPE svg PUBLIC "-//W3C//DTD SVG 1.1//EN" "http://www.w3.org/Graphics/SVG/1.1/DTD/svg11.dtd">
<svg version="1.1" xmlns="http://www.w3.org/2000/svg" xmlns:xlink="http://www.w3.org/1999/xlink" preserveAspectRatio="xMidYMid meet" viewBox="0 0 640 640" width="640" height="640"><defs><path d="M352.35 15.82C337.32 15.82 325.12 28.01 325.12 43.04C325.12 59.6 325.12 192.03 325.12 208.58C325.12 223.61 337.32 235.81 352.35 235.81C360.27 235.81 423.65 235.81 431.58 235.81C430.54 279.16 420.47 313.84 401.41 339.93C386.38 360.51 363.62 377.56 333.18 391.01C319.18 397.16 313.14 413.71 319.67 427.54C321.63 431.68 337.32 464.79 339.28 468.93C345.59 482.22 361.22 488.04 374.73 482.22C410.78 466.64 441.22 446.93 466.05 422.97C496.32 393.73 517.07 360.73 528.29 323.92C539.51 287.11 545.11 236.9 545.11 173.19C545.11 160.17 545.11 56.06 545.11 43.04C545.11 28.01 532.92 15.82 517.89 15.82C484.78 15.82 368.9 15.82 352.35 15.82Z" id="a2JXGGMNgt"></path><path d="M162.79 422.97C193.34 393.73 214.2 360.84 225.41 324.3C236.63 287.76 242.24 237.39 242.24 173.19C242.24 160.17 242.24 56.06 242.24 43.04C242.24 28.01 230.04 15.82 215.01 15.82C198.46 15.82 66.03 15.82 49.47 15.82C34.44 15.82 22.24 28.01 22.24 43.04C22.24 59.6 22.24 192.03 22.24 208.58C22.24 223.61 34.44 235.81 49.47 235.81C57.39 235.81 120.78 235.81 128.7 235.81C127.67 279.16 117.59 313.84 98.53 339.93C83.51 360.51 60.74 377.56 30.3 391.01C16.31 397.16 10.26 413.71 16.8 427.54C18.75 431.67 34.39 464.69 36.35 468.82C42.67 482.11 58.4 487.99 71.91 482.11C107.52 466.59 137.8 446.88 162.79 422.97Z" id="f2dp1FDq2r"></path><path d="" id="avY3eO9QT"></path></defs><g><g><g><use xlink:href="#a2JXGGMNgt" opacity="1" fill="#ffffff" fill-opacity="1"></use><g><use xlink:href="#a2JXGGMNgt" opacity="1" fill-opacity="0" stroke="#000000" stroke-width="1" stroke-opacity="0"></use></g></g><g><use xlink:href="#f2dp1FDq2r" opacity="1" fill="#ffffff" fill-opacity="1"></use><g><use xlink:href="#f2dp1FDq2r" opacity="1" fill-opacity="0" stroke="#000000" stroke-width="1" stroke-opacity="0"></use></g></g><g><g><use xlink:href="#avY3eO9QT" opacity="1" fill-opacity="0" stroke="#000000" stroke-width="1" stroke-opacity="1"></use></g></g></g></g></svg>